<svg width="223" height="20" viewBox="0 0 223 20" fill="none" xmlns="http://www.w3.org/2000/svg">
<path d="M20.4447 2.49966V0H17.8895H15.3315V2.49966H12.7763V4.99933H10.221V2.49966H7.66575V0H5.1105H2.55525V2.49966H0V4.99933V7.49899V9.99866H2.55525V12.4983H5.1105V14.998H7.66575V17.5003H10.221V20H12.7763V17.5003H15.3315V14.998H17.8895V12.4983H20.4447V9.99866H23V7.49899V4.99933V2.49966H20.4447Z" fill="#EB5757"/>
<path d="M60.4447 2.49966V0H57.8895H55.3315V2.49966H52.7763V4.99933H50.221V2.49966H47.6658V0H45.1105H42.5553V2.49966H40V4.99933V7.49899V9.99866H42.5553V12.4983H45.1105V14.998H47.6658V17.5003H50.221V20H52.7763V17.5003H55.3315V14.998H57.8895V12.4983H60.4447V9.99866H63V7.49899V4.99933V2.49966H60.4447Z" fill="#EB5757"/>
<path d="M100.445 2.49966V0H97.8895H95.3315V2.49966H92.7763V4.99933H90.221V2.49966H87.6658V0H85.1105H82.5553V2.49966H80V4.99933V7.49899V9.99866H82.5553V12.4983H85.1105V14.998H87.6658V17.5003H90.221V20H92.7763V17.5003H95.3315V14.998H97.8895V12.4983H100.445V9.99866H103V7.49899V4.99933V2.49966H100.445Z" fill="#EB5757"/>
<path d="M140.445 2.49966V0H137.889H135.332V2.49966H132.776V4.99933H130.221V2.49966H127.666V0H125.111H122.555V2.49966H120V4.99933V7.49899V9.99866H122.555V12.4983H125.111V14.998H127.666V17.5003H130.221V20H132.776V17.5003H135.332V14.998H137.889V12.4983H140.445V9.99866H143V7.49899V4.99933V2.49966H140.445Z" fill="#EB5757"/>
<path d="M180.445 2.49966V0H177.889H175.332V2.49966H172.776V4.99933H170.221V2.49966H167.666V0H165.111H162.555V2.49966H160V4.99933V7.49899V9.99866H162.555V12.4983H165.111V14.998H167.666V17.5003H170.221V20H172.776V17.5003H175.332V14.998H177.889V12.4983H180.445V9.99866H183V7.49899V4.99933V2.49966H180.445Z" fill="#828282"/>
<path d="M220.445 2.49966V0H217.889H215.332V2.49966H212.776V4.99933H210.221V2.49966H207.666V0H205.111H202.555V2.49966H200V4.99933V7.49899V9.99866H202.555V12.4983H205.111V14.998H207.666V17.5003H210.221V20H212.776V17.5003H215.332V14.998H217.889V12.4983H220.445V9.99866H223V7.49899V4.99933V2.49966H220.445Z" fill="#828282"/>
</svg>
