<svg width="70" height="46" viewBox="0 0 70 46" fill="none" xmlns="http://www.w3.org/2000/svg">
<path d="M35.1944 22.0694C36.5069 20.5138 37.4913 18.853 38.1475 17.0868C38.8038 15.3206 39.1319 13.3518 39.1319 11.1805C39.1319 9.00922 38.8038 7.04047 38.1475 5.27428C37.4913 3.50809 36.5069 1.84722 35.1944 0.291667C38.6296 -0.129646 41.603 0.672438 44.1146 2.69792C46.6262 4.72335 47.882 7.55089 47.882 11.1805C47.882 14.8102 46.6262 17.6377 44.1146 19.6632C41.603 21.6887 38.6296 22.4907 35.1944 22.0694ZM51.0416 45.743V38.257C51.0416 36.0209 50.4907 33.9265 49.3889 31.974C48.287 30.0214 46.4884 28.3564 43.993 26.9791C50.4259 27.9837 55.0238 29.3975 57.7865 31.2204C60.5493 33.0434 61.9307 35.3889 61.9307 38.257V45.743H51.0416ZM58.3333 24.8889V18.0833H51.5277V13.2222H58.3333V6.4166H63.1944V13.2222H70V18.0833H63.1944V24.8889H58.3333ZM23.0903 22.3611C19.882 22.3611 17.2165 21.2997 15.0938 19.1771C12.971 17.0544 11.9097 14.3889 11.9097 11.1805C11.9097 7.9722 12.971 5.3067 15.0938 3.18405C17.2165 1.06135 19.882 0 23.0903 0C26.2986 0 28.9641 1.06135 31.0868 3.18405C33.2095 5.3067 34.2708 7.9722 34.2708 11.1805C34.2708 14.3889 33.2095 17.0544 31.0868 19.1771C28.9641 21.2997 26.2986 22.3611 23.0903 22.3611ZM0 45.743V38.4514C0 36.7662 0.441559 35.2309 1.32468 33.8455C2.20775 32.4601 3.38657 31.419 4.86114 30.7222C8.19911 29.1829 11.3021 28.0608 14.1701 27.3559C17.0382 26.6511 20.0116 26.2986 23.0903 26.2986C26.169 26.2986 29.1342 26.6511 31.9861 27.3559C34.8379 28.0608 37.9329 29.1829 41.2708 30.7222C42.7454 31.419 43.9323 32.4601 44.8316 33.8455C45.7309 35.2309 46.1805 36.7662 46.1805 38.4514V45.743H0ZM23.0903 17.5C24.8889 17.5 26.3918 16.8964 27.599 15.6893C28.8061 14.4821 29.4097 12.9791 29.4097 11.1805C29.4097 9.38192 28.8061 7.87903 27.599 6.67188C26.3918 5.46467 24.8889 4.86106 23.0903 4.86106C21.2916 4.86106 19.7887 5.46467 18.5816 6.67188C17.3744 7.87903 16.7708 9.38192 16.7708 11.1805C16.7708 12.9791 17.3744 14.4821 18.5816 15.6893C19.7887 16.8964 21.2916 17.5 23.0903 17.5ZM4.86114 40.882H41.3195V38.4514C41.3195 37.7546 41.1453 37.1065 40.7969 36.5069C40.4485 35.9074 39.9259 35.4375 39.2292 35.0972C36.1181 33.6227 33.3391 32.5978 30.8923 32.0225C28.4456 31.4473 25.8449 31.1597 23.0903 31.1597C20.3357 31.1597 17.7431 31.4473 15.3125 32.0225C12.8819 32.5978 10.0787 33.6227 6.90273 35.0972C6.27078 35.4051 5.77252 35.8669 5.40794 36.4826C5.04335 37.0984 4.86106 37.7546 4.86106 38.4514L4.86114 40.882Z" fill="url(#paint0_linear_14_284)"/>
<defs>
<linearGradient id="paint0_linear_14_284" x1="35" y1="-35.5" x2="35" y2="45.743" gradientUnits="userSpaceOnUse">
<stop stop-color="#71F5B5"/>
<stop offset="1" stop-color="#DBF6E9" stop-opacity="0"/>
</linearGradient>
</defs>
</svg>
