<svg width="70" height="71" viewBox="0 0 70 71" fill="none" xmlns="http://www.w3.org/2000/svg">
<mask id="mask0_136_153" style="mask-type:alpha" maskUnits="userSpaceOnUse" x="0" y="0" width="70" height="71">
<rect y="0.45459" width="70" height="70" fill="#D9D9D9"/>
</mask>
<g mask="url(#mask0_136_153)">
<path d="M25.6667 61.7046H14.5833C12.9792 61.7046 11.6059 61.1334 10.4635 59.9911C9.32118 58.8487 8.75 57.4754 8.75 55.8713V44.7879C11.0833 44.7879 13.125 44.0466 14.875 42.564C16.625 41.0813 17.5 39.1976 17.5 36.9129C17.5 34.6282 16.625 32.7445 14.875 31.2619C13.125 29.7792 11.0833 29.0379 8.75 29.0379V17.9546C8.75 16.3504 9.32118 14.9772 10.4635 13.8348C11.6059 12.6924 12.9792 12.1213 14.5833 12.1213H26.25C26.25 10.0796 26.9549 8.3539 28.3646 6.94417C29.7743 5.53445 31.5 4.82959 33.5417 4.82959C35.5833 4.82959 37.309 5.53445 38.7188 6.94417C40.1285 8.3539 40.8333 10.0796 40.8333 12.1213H52.5C54.1042 12.1213 55.4774 12.6924 56.6198 13.8348C57.7622 14.9772 58.3333 16.3504 58.3333 17.9546V29.6213C60.375 29.6213 62.1007 30.3261 63.5104 31.7358C64.9201 33.1456 65.625 34.8713 65.625 36.9129C65.625 38.9546 64.9201 40.6803 63.5104 42.09C62.1007 43.4997 60.375 44.2046 58.3333 44.2046V55.8713C58.3333 57.4754 57.7622 58.8487 56.6198 59.9911C55.4774 61.1334 54.1042 61.7046 52.5 61.7046H41.4167C41.4167 59.274 40.651 57.2081 39.1198 55.5067C37.5885 53.8053 35.7292 52.9546 33.5417 52.9546C31.3542 52.9546 29.4948 53.8053 27.9635 55.5067C26.4323 57.2081 25.6667 59.274 25.6667 61.7046ZM14.5833 55.8713H20.7812C21.9479 52.6629 23.8194 50.4025 26.3958 49.09C28.9722 47.7775 31.3542 47.1213 33.5417 47.1213C35.7292 47.1213 38.1111 47.7775 40.6875 49.09C43.2639 50.4025 45.1354 52.6629 46.3021 55.8713H52.5V38.3713H58.3333C58.7222 38.3713 59.0625 38.2254 59.3542 37.9338C59.6458 37.6421 59.7917 37.3018 59.7917 36.9129C59.7917 36.524 59.6458 36.1838 59.3542 35.8921C59.0625 35.6004 58.7222 35.4546 58.3333 35.4546H52.5V17.9546H35V12.1213C35 11.7324 34.8542 11.3921 34.5625 11.1004C34.2708 10.8088 33.9306 10.6629 33.5417 10.6629C33.1528 10.6629 32.8125 10.8088 32.5208 11.1004C32.2292 11.3921 32.0833 11.7324 32.0833 12.1213V17.9546H14.5833V24.3713C17.2083 25.3435 19.3229 26.972 20.9271 29.2567C22.5313 31.5414 23.3333 34.0935 23.3333 36.9129C23.3333 39.6838 22.5313 42.2115 20.9271 44.4963C19.3229 46.781 17.2083 48.4338 14.5833 49.4546V55.8713Z" fill="url(#paint0_linear_136_153)"/>
</g>
<defs>
<linearGradient id="paint0_linear_136_153" x1="33.5" y1="-8.99995" x2="33.5" y2="62" gradientUnits="userSpaceOnUse">
<stop stop-color="#63A080"/>
<stop offset="1" stop-color="#456954" stop-opacity="0.509321"/>
</linearGradient>
</defs>
</svg>
