<svg width="72" height="72" viewBox="0 0 72 72" fill="none" xmlns="http://www.w3.org/2000/svg">
<g clip-path="url(#clip0_136_76)">
<mask id="mask0_136_76" style="mask-type:alpha" maskUnits="userSpaceOnUse" x="1" y="4" width="70" height="71">
<rect x="1" y="4.5" width="70" height="70" fill="#D9D9D9"/>
</mask>
<g mask="url(#mask0_136_76)">
<path d="M35.9993 39.4993C32.791 39.4993 30.0445 38.357 27.7598 36.0723C25.475 33.7875 24.3327 31.041 24.3327 27.8327C24.3327 24.6243 25.475 21.8778 27.7598 19.5931C30.0445 17.3084 32.791 16.166 35.9993 16.166C39.2077 16.166 41.9542 17.3084 44.2389 19.5931C46.5237 21.8778 47.666 24.6243 47.666 27.8327C47.666 31.041 46.5237 33.7875 44.2389 36.0723C41.9542 38.357 39.2077 39.4993 35.9993 39.4993ZM12.666 62.8327V54.666C12.666 53.0132 13.0914 51.4941 13.9421 50.1087C14.7928 48.7233 15.923 47.666 17.3327 46.9368C20.3466 45.4299 23.4091 44.2997 26.5202 43.5462C29.6313 42.7928 32.791 42.416 35.9993 42.416C39.2077 42.416 42.3674 42.7928 45.4785 43.5462C48.5896 44.2997 51.6521 45.4299 54.666 46.9368C56.0757 47.666 57.2059 48.7233 58.0566 50.1087C58.9073 51.4941 59.3327 53.0132 59.3327 54.666V62.8327H12.666ZM18.4993 56.9994H53.4994V54.666C53.4994 54.1313 53.3657 53.6452 53.0983 53.2077C52.8309 52.7702 52.4785 52.4299 52.041 52.1869C49.416 50.8744 46.7667 49.89 44.0931 49.2337C41.4195 48.5775 38.7216 48.2494 35.9993 48.2494C33.2771 48.2494 30.5792 48.5775 27.9056 49.2337C25.232 49.89 22.5827 50.8744 19.9577 52.1869C19.5202 52.4299 19.1678 52.7702 18.9004 53.2077C18.633 53.6452 18.4993 54.1313 18.4993 54.666V56.9994ZM35.9993 33.666C37.6035 33.666 38.9768 33.0948 40.1191 31.9525C41.2615 30.8101 41.8327 29.4368 41.8327 27.8327C41.8327 26.2285 41.2615 24.8553 40.1191 23.7129C38.9768 22.5705 37.6035 21.9993 35.9993 21.9993C34.3952 21.9993 33.0219 22.5705 31.8796 23.7129C30.7372 24.8553 30.166 26.2285 30.166 27.8327C30.166 29.4368 30.7372 30.8101 31.8796 31.9525C33.0219 33.0948 34.3952 33.666 35.9993 33.666Z" fill="url(#paint0_linear_136_76)"/>
</g>
</g>
<defs>
<linearGradient id="paint0_linear_136_76" x1="36" y1="-17" x2="36" y2="63" gradientUnits="userSpaceOnUse">
<stop stop-color="#68F6B1"/>
<stop offset="0.9999" stop-color="#D2F5E4" stop-opacity="0"/>
<stop offset="1" stop-color="#D4F5E5" stop-opacity="0"/>
</linearGradient>
<clipPath id="clip0_136_76">
<rect width="72" height="72" rx="36" fill="white"/>
</clipPath>
</defs>
</svg>
